<svg
  xmlns="http://www.w3.org/2000/svg"
  width="24"
  height="24"
  viewBox="0 0 24 24"
  fill="none"
  stroke="currentColor"
  stroke-width="2"
  stroke-linecap="round"
  stroke-linejoin="round"
>
  <path d="M8 12.5a2.7 2.7 0 0 0 2.307-3.02 49.6 49.6 0 0 1-.74-1.956c-.218-.49-.421-.421-.567-.424a.86.86 0 0 0-1.133.312c-.225.26-.861.892-.867 2.188.006 1.273.888 2.514 1 2.9" />
  <path d="M12 16a13.14 13.14 0 0 0 1.617.779A2.4 2.4 0 0 0 17 14.5a41.1 41.1 0 0 0-2.5-1.5 2.7 2.7 0 0 0-2.5 3" />
  <path d="M3.7 17.2a9.86 9.86 0 1 1 3 3l-3.8 1 1-3.7Z" />
  <path d="M8 12.5c.134-.037 1.746 2.599 4 3.5" />
</svg>
